<?xml version="1.0" encoding="UTF-8" standalone="no"?>
<!DOCTYPE svg PUBLIC "-//W3C//DTD SVG 1.1//EN"
 "http://www.w3.org/Graphics/SVG/1.1/DTD/svg11.dtd">
<!-- Generated by graphviz version 2.38.0 (20140413.2041)
 -->
<!-- Title: G Pages: 1 -->
<svg width="481pt" height="216pt"
 viewBox="0.00 0.00 480.99 216.00" xmlns="http://www.w3.org/2000/svg" xmlns:xlink="http://www.w3.org/1999/xlink">
<g id="graph0" class="graph" transform="scale(1 1) rotate(0) translate(4 212)">
<title>G</title>
<polygon fill="white" stroke="none" points="-4,4 -4,-212 476.992,-212 476.992,4 -4,4"/>
<!-- pypy.py -->
<g id="node1" class="node"><title>pypy.py</title>
<polygon fill="none" stroke="black" points="65.421,-208 5.23664,-208 5.23664,-172 65.421,-172 65.421,-208"/>
<text text-anchor="middle" x="35.3288" y="-185.8" font-family="Times,serif" font-size="14.00">pypy.py</text>
</g>
<!-- pypy.c -->
<g id="node2" class="node"><title>pypy.c</title>
<ellipse fill="none" stroke="black" cx="35.3288" cy="-104" rx="33.2115" ry="18"/>
<text text-anchor="middle" x="35.3288" y="-99.8" font-family="Times,serif" font-size="14.00">pypy.c</text>
</g>
<!-- pypy.py&#45;&gt;pypy.c -->
<g id="edge1" class="edge"><title>pypy.py&#45;&gt;pypy.c</title>
<path fill="none" stroke="black" d="M35.3288,-171.595C35.3288,-160.257 35.3288,-145.227 35.3288,-132.315"/>
<polygon fill="black" stroke="black" points="38.8289,-132.095 35.3288,-122.095 31.8289,-132.095 38.8289,-132.095"/>
<text text-anchor="middle" x="57.1047" y="-142.8" font-family="Times,serif" font-size="14.00">rpython</text>
</g>
<!-- pypy.js -->
<g id="node3" class="node"><title>pypy.js</title>
<ellipse fill="none" stroke="black" cx="35.3288" cy="-18" rx="35.1585" ry="18"/>
<text text-anchor="middle" x="35.3288" y="-13.8" font-family="Times,serif" font-size="14.00">pypy.js</text>
</g>
<!-- pypy.c&#45;&gt;pypy.js -->
<g id="edge2" class="edge"><title>pypy.c&#45;&gt;pypy.js</title>
<path fill="none" stroke="black" d="M35.3288,-85.5951C35.3288,-74.2572 35.3288,-59.2271 35.3288,-46.3153"/>
<polygon fill="black" stroke="black" points="38.8289,-46.0951 35.3288,-36.0952 31.8289,-46.0952 38.8289,-46.0951"/>
<text text-anchor="middle" x="66.0393" y="-56.8" font-family="Times,serif" font-size="14.00">emscripten</text>
</g>
<!-- pypy.x86 -->
<g id="node4" class="node"><title>pypy.x86</title>
<ellipse fill="none" stroke="black" cx="152.329" cy="-18" rx="42.8919" ry="18"/>
<text text-anchor="middle" x="152.329" y="-13.8" font-family="Times,serif" font-size="14.00">pypy.x86</text>
</g>
<!-- pypy.js&#45;&gt;pypy.x86 -->
<g id="edge3" class="edge"><title>pypy.js&#45;&gt;pypy.x86</title>
<path fill="none" stroke="black" d="M70.7502,-18C79.8353,-18 89.8048,-18 99.5597,-18"/>
<polygon fill="black" stroke="black" points="99.6016,-21.5001 109.602,-18 99.6015,-14.5001 99.6016,-21.5001"/>
<text text-anchor="middle" x="90.1455" y="-23.8" font-family="Times,serif" font-size="14.00">jsjit</text>
</g>
<!-- source.js -->
<g id="node6" class="node"><title>source.js</title>
<ellipse fill="none" stroke="black" cx="296.329" cy="-18" rx="41.0939" ry="18"/>
<text text-anchor="middle" x="296.329" y="-13.8" font-family="Times,serif" font-size="14.00">source.js</text>
</g>
<!-- pypy.x86&#45;&gt;source.js -->
<g id="edge5" class="edge"><title>pypy.x86&#45;&gt;source.js</title>
<path fill="none" stroke="black" d="M195.144,-18C210.649,-18 228.329,-18 244.525,-18"/>
<polygon fill="black" stroke="black" points="244.917,-21.5001 254.917,-18 244.916,-14.5001 244.917,-21.5001"/>
<text text-anchor="middle" x="225.028" y="-23.8" font-family="Times,serif" font-size="14.00">pypy jit</text>
</g>
<!-- source.py -->
<g id="node5" class="node"><title>source.py</title>
<polygon fill="none" stroke="black" points="187.367,-122 117.291,-122 117.291,-86 187.367,-86 187.367,-122"/>
<text text-anchor="middle" x="152.329" y="-99.8" font-family="Times,serif" font-size="14.00">source.py</text>
</g>
<!-- source.py&#45;&gt;pypy.x86 -->
<g id="edge4" class="edge"><title>source.py&#45;&gt;pypy.x86</title>
<path fill="none" stroke="black" d="M152.329,-85.5951C152.329,-74.2572 152.329,-59.2271 152.329,-46.3153"/>
<polygon fill="black" stroke="black" points="155.829,-46.0951 152.329,-36.0952 148.829,-46.0952 155.829,-46.0951"/>
</g>
<!-- source.x86 -->
<g id="node7" class="node"><title>source.x86</title>
<ellipse fill="none" stroke="black" cx="424.329" cy="-18" rx="48.8268" ry="18"/>
<text text-anchor="middle" x="424.329" y="-13.8" font-family="Times,serif" font-size="14.00">source.x86</text>
</g>
<!-- source.js&#45;&gt;source.x86 -->
<g id="edge6" class="edge"><title>source.js&#45;&gt;source.x86</title>
<path fill="none" stroke="black" d="M337.887,-18C346.585,-18 355.916,-18 365.115,-18"/>
<polygon fill="black" stroke="black" points="365.404,-21.5001 375.404,-18 365.404,-14.5001 365.404,-21.5001"/>
<text text-anchor="middle" x="356.645" y="-23.8" font-family="Times,serif" font-size="14.00">jsjit</text>
</g>
</g>
</svg>
